<?xml version="1.0" standalone="no"?>
<!DOCTYPE svg PUBLIC "-//W3C//DTD SVG 20010904//EN"
 "http://www.w3.org/TR/2001/REC-SVG-20010904/DTD/svg10.dtd">
<svg version="1.0" xmlns="http://www.w3.org/2000/svg"
 width="300.000000pt" height="300.000000pt" viewBox="0 0 300.000000 300.000000"
 preserveAspectRatio="xMidYMid meet">
<metadata>
Created by potrace 1.11, written by Peter Selinger 2001-2013
</metadata>
<g transform="translate(0.000000,300.000000) scale(0.100000,-0.100000)"
fill="#000000" stroke="none">
<path d="M1355 2985 c-27 -7 -81 -16 -120 -20 -87 -8 -167 -35 -270 -92 -187
-103 -366 -287 -389 -398 -4 -16 -8 -40 -11 -52 -2 -13 -29 -48 -60 -78 -124
-124 -222 -325 -268 -555 -25 -120 -30 -177 -29 -315 l1 -130 -55 -24 c-113
-49 -146 -99 -150 -228 -3 -104 16 -186 68 -292 50 -100 146 -203 225 -240 45
-21 54 -30 67 -69 27 -77 65 -130 132 -186 103 -85 357 -202 523 -242 208 -49
285 -58 496 -58 175 -1 253 5 360 28 39 8 83 17 98 20 45 8 209 66 277 98 87
41 217 128 283 188 47 43 99 126 121 193 3 9 9 16 13 15 20 -5 91 41 144 93
124 122 183 259 184 424 0 64 -5 113 -14 135 -31 76 -103 122 -161 102 -36
-13 -43 0 -31 63 9 51 7 236 -4 310 -12 84 -44 211 -70 280 -62 163 -166 324
-253 391 -42 31 -46 39 -49 82 -1 27 -5 59 -7 73 -3 13 -5 27 -5 30 -1 3 -15
24 -32 45 -21 27 -29 46 -26 63 7 33 -30 129 -62 164 -14 16 -53 43 -86 60
-54 28 -68 31 -145 30 -47 -1 -98 -4 -115 -7 -121 -25 -140 -22 -305 57 -118
56 -185 66 -275 42z m1060 -1865 c3 -6 -1 -7 -9 -4 -18 7 -21 14 -7 14 6 0 13
-4 16 -10z m-1344 -133 c-10 -9 -11 -8 -5 6 3 10 9 15 12 12 3 -3 0 -11 -7
-18z m-363 -72 c-3 -3 -9 2 -12 12 -6 14 -5 15 5 6 7 -7 10 -15 7 -18z m92
-15 c-6 -11 -13 -20 -16 -20 -2 0 0 9 6 20 6 11 13 20 16 20 2 0 0 -9 -6 -20z
m-50 6 c0 -2 -7 -7 -16 -10 -8 -3 -12 -2 -9 4 6 10 25 14 25 6z"/>
</g>
</svg>
